<svg width="184" height="26" viewBox="0 0 184 26" fill="none" xmlns="http://www.w3.org/2000/svg">
<path d="M108.691 23.4938C114.581 23.4938 119.355 18.8257 119.355 13.0672C119.355 7.30877 114.581 2.64062 108.691 2.64062C102.802 2.64062 98.0273 7.30877 98.0273 13.0672C98.0273 18.8257 102.802 23.4938 108.691 23.4938Z" fill="#15E1FF"/>
<path d="M39.4459 16.6373C39.7562 16.6373 40.0093 16.8822 40.0256 17.1925C40.2297 20.9034 43.0793 22.0588 46.9331 22.0588C49.2642 22.0588 54.2897 20.8993 54.2897 17.9641C54.2897 15.6779 51.1911 14.7716 49.1417 14.3225L43.6223 13.2202C41.0136 12.6283 38.6213 11.4974 38.6213 8.36212C38.6213 6.38621 40.6911 2.6875 46.9331 2.6875C51.085 2.6875 55.2573 4.6185 55.6002 8.32946C55.6329 8.66422 55.3552 8.95407 55.0205 8.95407H54.0448C53.7508 8.95407 53.51 8.73362 53.4692 8.44377C53.0732 5.70444 49.8929 4.32457 46.9331 4.32457C44.0428 4.32457 40.7319 5.3411 40.7319 8.33354C40.7319 10.2237 42.2832 11.0157 44.0877 11.4117L50.0766 12.6242C53.216 13.3876 56.4044 14.6287 56.4044 17.9314C56.4044 19.3154 54.7919 23.6917 46.9331 23.6917C41.8995 23.6917 37.9762 21.7199 37.8946 17.2251C37.8905 16.8985 38.1518 16.6291 38.4784 16.6291H39.4459V16.6373Z" fill="#0E003F" stroke="#0E003F" stroke-width="2" stroke-miterlimit="10"/>
<path d="M85.0771 9.21127C84.824 9.21127 84.5994 9.04797 84.5259 8.80711C83.64 5.94938 80.9211 4.32457 77.8348 4.32457C71.9642 4.32457 69.478 8.78669 69.478 13.1917C69.478 17.5966 71.9642 22.0588 77.8348 22.0588C81.7499 22.0588 84.3055 19.4297 84.8811 16.0698C84.9301 15.7922 85.171 15.5922 85.4527 15.5922H86.3835C86.7468 15.5922 87.0244 15.9228 86.9591 16.278C86.1426 20.8259 82.7786 23.6958 77.8348 23.6958C70.8415 23.6958 67.3633 18.6989 67.3633 13.1917C67.3633 7.68443 70.8415 2.6875 77.8307 2.6875C81.7744 2.6875 85.6935 4.7124 86.608 8.48051C86.6978 8.85201 86.4243 9.21127 86.0446 9.21127H85.0771Z" fill="#0E003F" stroke="#0E003F" stroke-width="2" stroke-miterlimit="10"/>
<path d="M133.791 3.10955H134.738C135.06 3.10955 135.322 3.37083 135.322 3.69334V15.5937C135.289 20.2804 137.747 22.0603 141.813 22.0603C145.911 22.0603 148.365 20.2804 148.336 15.5937V3.68926C148.336 3.36675 148.598 3.10547 148.92 3.10547H149.867C150.19 3.10547 150.451 3.36675 150.451 3.68926V16.0101C150.451 20.162 147.998 23.6892 141.817 23.6892C135.664 23.6892 133.211 20.1579 133.211 16.0101V3.68926C133.211 3.37083 133.472 3.10955 133.791 3.10955Z" fill="#0E003F" stroke="#0E003F" stroke-width="2" stroke-miterlimit="10"/>
<path d="M165.578 3.68926C165.578 3.36675 165.84 3.10547 166.162 3.10547H175.425C179.402 3.10547 182.01 5.22426 182.01 8.86582C182.01 12.5074 179.402 14.6262 175.425 14.6262H168.273C167.95 14.6262 167.689 14.8874 167.689 15.21V22.6849C167.689 23.0075 167.428 23.2687 167.105 23.2687H166.158C165.835 23.2687 165.574 23.0075 165.574 22.6849V3.68926H165.578ZM167.693 12.4094C167.693 12.7319 167.954 12.9932 168.277 12.9932H174.964C177.883 12.9932 179.904 11.6378 179.904 8.8699C179.904 6.10199 177.883 4.74662 174.964 4.74662H168.277C167.954 4.74662 167.693 5.00789 167.693 5.33041V12.4094Z" fill="#0E003F" stroke="#0E003F" stroke-width="2" stroke-miterlimit="10"/>
<path d="M108.821 1.81641C102.093 1.81641 99.0273 6.03767 98.7742 11.2959C98.7578 11.6306 99.0232 11.9123 99.3579 11.9123H100.305C100.611 11.9123 100.868 11.6715 100.885 11.3653C101.085 7.14401 103.191 3.45347 108.821 3.45347C114.418 3.45347 116.525 7.14401 116.725 11.3653C116.741 11.6715 116.998 11.9123 117.304 11.9123H118.252C118.586 11.9123 118.852 11.6306 118.835 11.2959C118.582 6.03767 115.516 1.81641 108.821 1.81641Z" fill="#0E003F" stroke="#0E003F" stroke-width="2" stroke-miterlimit="10"/>
<path d="M122.614 16.5824H99.7322C99.4097 16.5824 99.1484 16.3211 99.1484 15.9986V15.076C99.1484 14.7535 99.4097 14.4922 99.7322 14.4922H122.614C122.937 14.4922 123.198 14.7535 123.198 15.076V15.9986C123.194 16.3211 122.937 16.5824 122.614 16.5824Z" fill="#0E003F" stroke="#0E003F" stroke-width="2" stroke-miterlimit="10"/>
<path d="M108.815 23.3632C103.186 23.3632 100.671 19.2644 100.471 15.0431C100.454 14.737 100.197 14.4961 99.891 14.4961H98.9439C98.6091 14.4961 98.3438 14.7778 98.3601 15.1125C98.6132 20.3708 102.087 25.0003 108.815 25.0003C113.465 25.0003 116.56 22.7672 118.103 19.6482C118.295 19.2603 118.017 18.8031 117.58 18.8031H116.613C116.396 18.8031 116.2 18.9296 116.102 19.1256C114.878 21.5628 112.522 23.3632 108.815 23.3632Z" fill="#0E003F" stroke="#0E003F" stroke-width="2" stroke-miterlimit="10"/>
<path d="M0.842778 11.6639C0.357095 11.6639 -0.0370251 11.2661 0.00278494 10.8C0.460601 5.53639 5.87897 1 11.4842 1C17.0895 1 22.5079 5.53639 22.9657 10.8C23.0055 11.2661 22.6153 11.6639 22.1257 11.6639H0.842778Z" fill="#15E1FF"/>
<path d="M25.2746 16.5785H2.39239C2.06987 16.5785 1.80859 16.3172 1.80859 15.9947V15.0721C1.80859 14.7496 2.06987 14.4883 2.39239 14.4883H25.2746C25.5971 14.4883 25.8584 14.7496 25.8584 15.0721V15.9947C25.8584 16.3172 25.5971 16.5785 25.2746 16.5785Z" fill="#0E003F" stroke="#0E003F" stroke-width="2" stroke-miterlimit="10"/>
<path d="M11.4754 23.3593C5.84571 23.3593 3.33092 19.2605 3.13088 15.0392C3.11863 14.7331 2.85735 14.4922 2.55117 14.4922H1.60404C1.26928 14.4922 1.00392 14.7739 1.02025 15.1086C1.27336 20.3668 4.74753 24.9964 11.4754 24.9964C16.1253 24.9964 19.2198 22.7632 20.763 19.6442C20.9549 19.2564 20.6773 18.7992 20.2405 18.7992H19.2729C19.0565 18.7992 18.8606 18.9257 18.7626 19.1217C17.5379 21.5589 15.1823 23.3593 11.4754 23.3593Z" fill="#0E003F" stroke="#0E003F" stroke-width="2" stroke-miterlimit="10"/>
</svg>
