<svg width="16" height="16" viewBox="0 0 16 16" fill="none" xmlns="http://www.w3.org/2000/svg">
<path d="M14 8.85714V7.14286H12.2C12.0922 6.60656 11.8795 6.09682 11.5743 5.64286L12.8514 4.36571L11.6343 3.14857L10.3571 4.42571C9.90318 4.12048 9.39344 3.90785 8.85714 3.8V2H7.14286V3.8C6.60656 3.90785 6.09682 4.12048 5.64286 4.42571L4.36571 3.14857L3.14857 4.36571L4.42571 5.64286C4.12048 6.09682 3.90785 6.60656 3.8 7.14286H2V8.85714H3.8C3.90785 9.39344 4.12048 9.90318 4.42571 10.3571L3.14857 11.6343L4.36571 12.8514L5.64286 11.5743C6.09682 11.8795 6.60656 12.0922 7.14286 12.2V14H8.85714V12.2C9.39344 12.0922 9.90318 11.8795 10.3571 11.5743L11.6343 12.8514L12.8514 11.6343L11.5743 10.3571C11.8795 9.90318 12.0922 9.39344 12.2 8.85714H14ZM10.3143 9.10571C10.055 9.6303 9.6303 10.055 9.10571 10.3143L8.85714 10.4171C8.3042 10.6227 7.6958 10.6227 7.14286 10.4171L6.89429 10.3143C6.3697 10.055 5.945 9.6303 5.68571 9.10571L5.58286 8.85714C5.37731 8.3042 5.37731 7.6958 5.58286 7.14286L5.68571 6.89429C5.945 6.3697 6.3697 5.945 6.89429 5.68571L7.14286 5.58286C7.6958 5.37731 8.3042 5.37731 8.85714 5.58286L9.10571 5.68571C9.6303 5.945 10.055 6.3697 10.3143 6.89429L10.4171 7.14286C10.6227 7.6958 10.6227 8.3042 10.4171 8.85714L10.3143 9.10571Z" fill="black"/>
</svg>
