<svg width="18" height="18" viewBox="0 0 18 18" fill="none" xmlns="http://www.w3.org/2000/svg">
<circle cx="9" cy="9" r="9" fill="#F2F4F7"/>
<path d="M11 13C11 14.1046 10.1046 15 9 15C7.89543 15 7 14.1046 7 13" stroke="#030A22"/>
<path d="M10 4C10 3.44772 9.55228 3 9 3C8.44772 3 8 3.44772 8 4" stroke="#030A22"/>
<path fill-rule="evenodd" clip-rule="evenodd" d="M7.63159 3.5C6.44367 3.5 5.41979 4.33594 5.18213 5.49985L4.47293 8.97315C4.4505 9.083 4.41556 9.19076 4.36885 9.29489C4.16523 9.74886 3.90465 10.3455 3.6658 10.9232C3.39699 11.5733 3.45825 12.2328 3.82624 12.7353C4.18861 13.2301 4.79463 13.5 5.47637 13.5H12.5234C13.2051 13.5 13.8112 13.2301 14.1735 12.7353C14.5415 12.2328 14.6028 11.5733 14.334 10.9232C14.0951 10.3455 13.8345 9.74886 13.6309 9.29489C13.5842 9.19076 13.5493 9.083 13.5268 8.97315L13.0986 6.8758C12.9152 6.95569 12.7128 7 12.5 7C12.3585 7 12.2216 6.98041 12.0918 6.9438L12.5471 9.17321C12.5846 9.35701 12.6425 9.53482 12.7185 9.70415C12.9192 10.1515 13.1756 10.7389 13.4098 11.3053C13.5631 11.6759 13.5024 11.9593 13.3667 12.1445C13.2255 12.3374 12.9462 12.5 12.5234 12.5H5.47637C5.05355 12.5 4.77428 12.3374 4.63303 12.1445C4.49739 11.9593 4.43667 11.6759 4.58992 11.3053C4.82412 10.7389 5.0806 10.1515 5.28127 9.70415C5.35722 9.53482 5.41518 9.35701 5.45271 9.17321L6.16192 5.69991C6.30451 5.00157 6.91884 4.5 7.63159 4.5H10.3682C10.6731 4.5 10.9601 4.59182 11.1998 4.75158C11.3742 4.4492 11.6511 4.21336 11.983 4.09149C11.5439 3.72003 10.9776 3.5 10.3682 3.5H7.63159Z" fill="#030A22"/>
<circle cx="12.5" cy="5.5" r="1.5" fill="#F33636"/>
</svg>
