<svg width="11" height="14" viewBox="0 0 11 14" fill="none" xmlns="http://www.w3.org/2000/svg">
<path fill-rule="evenodd" clip-rule="evenodd" d="M4.13159 1.5C2.94367 1.5 1.91979 2.33594 1.68213 3.49985L0.972926 6.97315C0.950497 7.083 0.915556 7.19076 0.868847 7.29489C0.665226 7.74886 0.404652 8.34549 0.165798 8.92318C-0.103006 9.5733 -0.0417518 10.2328 0.326242 10.7353C0.688614 11.2301 1.29463 11.5 1.97637 11.5H9.02339C9.70513 11.5 10.3112 11.2301 10.6735 10.7353C11.0415 10.2328 11.1028 9.5733 10.834 8.92318C10.5951 8.3455 10.3345 7.74886 10.1309 7.29489C10.0842 7.19076 10.0493 7.083 10.0268 6.97315L9.59859 4.8758C9.41522 4.95569 9.21278 5 9 5C8.85852 5 8.72161 4.98041 8.59184 4.9438L9.04706 7.17321C9.08459 7.35701 9.14255 7.53482 9.2185 7.70415C9.41917 8.15153 9.67565 8.73885 9.90985 9.30528C10.0631 9.67591 10.0024 9.95927 9.86674 10.1445C9.72548 10.3374 9.44622 10.5 9.02339 10.5H1.97637C1.55355 10.5 1.27428 10.3374 1.13303 10.1445C0.997394 9.95927 0.936675 9.67591 1.08992 9.30527C1.32412 8.73885 1.5806 8.15153 1.78127 7.70415C1.85722 7.53482 1.91518 7.35701 1.95271 7.17321L2.66192 3.69991C2.80451 3.00157 3.41884 2.5 4.13159 2.5H6.86817C7.17313 2.5 7.46008 2.59182 7.69976 2.75158C7.87419 2.4492 8.15107 2.21336 8.48298 2.09149C8.0439 1.72003 7.47763 1.5 6.86817 1.5H4.13159Z" fill="#030A22"/>
<path d="M7.5 11C7.5 12.1046 6.60457 13 5.5 13C4.39543 13 3.5 12.1046 3.5 11" stroke="#030A22"/>
<path d="M6.5 2C6.5 1.44772 6.05228 1 5.5 1C4.94772 1 4.5 1.44772 4.5 2" stroke="#030A22"/>
<circle cx="9" cy="3.5" r="1.5" fill="#F33636"/>
</svg>
