<svg width="19" height="18" viewBox="0 0 19 18" fill="none" xmlns="http://www.w3.org/2000/svg">
<circle cx="9.5" cy="9" r="9" fill="#797A84"/>
<path d="M11.5 13C11.5 14.1046 10.6046 15 9.5 15C8.39543 15 7.5 14.1046 7.5 13" stroke="white"/>
<path d="M10.5 4C10.5 3.44772 10.0523 3 9.5 3C8.94772 3 8.5 3.44772 8.5 4" stroke="white"/>
<path fill-rule="evenodd" clip-rule="evenodd" d="M8.13159 3.5C6.94367 3.5 5.91979 4.33594 5.68213 5.49985L4.97293 8.97315C4.9505 9.083 4.91556 9.19076 4.86885 9.29489C4.66523 9.74886 4.40465 10.3455 4.1658 10.9232C3.89699 11.5733 3.95825 12.2328 4.32624 12.7353C4.68861 13.2301 5.29463 13.5 5.97637 13.5H13.0234C13.7051 13.5 14.3112 13.2301 14.6735 12.7353C15.0415 12.2328 15.1028 11.5733 14.834 10.9232C14.5951 10.3455 14.3345 9.74886 14.1309 9.29489C14.0842 9.19076 14.0493 9.083 14.0268 8.97315L13.5986 6.8758C13.4152 6.95569 13.2128 7 13 7C12.8585 7 12.7216 6.98041 12.5918 6.9438L13.0471 9.17321C13.0846 9.35701 13.1425 9.53482 13.2185 9.70415C13.4192 10.1515 13.6756 10.7389 13.9098 11.3053C14.0631 11.6759 14.0024 11.9593 13.8667 12.1445C13.7255 12.3374 13.4462 12.5 13.0234 12.5H5.97637C5.55355 12.5 5.27428 12.3374 5.13303 12.1445C4.99739 11.9593 4.93667 11.6759 5.08992 11.3053C5.32412 10.7389 5.5806 10.1515 5.78127 9.70415C5.85722 9.53482 5.91518 9.35701 5.95271 9.17321L6.66192 5.69991C6.80451 5.00157 7.41884 4.5 8.13159 4.5H10.8682C11.1731 4.5 11.4601 4.59182 11.6998 4.75158C11.8742 4.4492 12.1511 4.21336 12.483 4.09149C12.0439 3.72003 11.4776 3.5 10.8682 3.5H8.13159Z" fill="white"/>
<circle cx="13" cy="5.5" r="1.5" fill="#F33636"/>
</svg>
