<svg width="11" height="14" viewBox="0 0 11 14" fill="none" xmlns="http://www.w3.org/2000/svg">
<path d="M7.5 11C7.5 12.1046 6.60457 13 5.5 13C4.39543 13 3.5 12.1046 3.5 11" stroke="#030A22"/>
<path d="M6.5 2C6.5 1.44772 6.05228 1 5.5 1C4.94772 1 4.5 1.44772 4.5 2" stroke="#030A22"/>
<path d="M5.25821 11V11.5V11ZM5.74181 11V11.5V11ZM1.9765 11L1.9765 11.5L1.9765 11ZM9.67484 7.49952L10.131 7.29489L9.67484 7.49952ZM9.53708 7.07318L10.027 6.97315L9.53708 7.07318ZM1.46295 7.07318L0.973056 6.97315L1.46295 7.07318ZM4.13172 2.5H5.25821V1.5H4.13172V2.5ZM1.95284 7.17321L2.66205 3.69991L1.68226 3.49985L0.973056 6.97315L1.95284 7.17321ZM1.09005 9.30527C1.32425 8.73885 1.58073 8.15153 1.7814 7.70415L0.868976 7.29489C0.665356 7.74886 0.404781 8.34549 0.165927 8.92318L1.09005 9.30527ZM5.25821 10.5L1.9765 10.5L1.9765 11.5L5.25821 11.5V10.5ZM5.74181 10.5H5.25821V11.5H5.74181V10.5ZM5.74181 11.5L9.02352 11.5V10.5L5.74181 10.5V11.5ZM10.8341 8.92318C10.5952 8.3455 10.3347 7.74886 10.131 7.29489L9.21863 7.70415C9.4193 8.15153 9.67578 8.73885 9.90998 9.30528L10.8341 8.92318ZM10.027 6.97315L9.31776 3.49985L8.33798 3.69991L9.04718 7.17321L10.027 6.97315ZM6.8683 1.5H5.74181V2.5H6.8683V1.5ZM5.74181 1.5H5.25821V2.5H5.74181V1.5ZM9.31776 3.49985C9.08011 2.33594 8.05623 1.5 6.8683 1.5V2.5C7.58106 2.5 8.19539 3.00157 8.33798 3.69991L9.31776 3.49985ZM9.02352 11.5C9.70526 11.5 10.3113 11.2301 10.6737 10.7353C11.0416 10.2328 11.1029 9.5733 10.8341 8.92318L9.90998 9.30528C10.0632 9.67591 10.0025 9.95927 9.86687 10.1445C9.72561 10.3374 9.44635 10.5 9.02352 10.5V11.5ZM0.165927 8.92318C-0.102877 9.5733 -0.0416222 10.2328 0.326371 10.7353C0.688744 11.2301 1.29476 11.5 1.9765 11.5L1.9765 10.5C1.55368 10.5 1.27441 10.3374 1.13316 10.1445C0.997523 9.95927 0.936804 9.67591 1.09005 9.30527L0.165927 8.92318ZM10.131 7.29489C10.0843 7.19076 10.0494 7.083 10.027 6.97315L9.04718 7.17321C9.08472 7.35701 9.14268 7.53482 9.21863 7.70415L10.131 7.29489ZM0.973056 6.97315C0.950626 7.083 0.915686 7.19076 0.868976 7.29489L1.7814 7.70415C1.85735 7.53482 1.91531 7.35701 1.95284 7.17321L0.973056 6.97315ZM4.13172 1.5C2.9438 1.5 1.91992 2.33594 1.68226 3.49985L2.66205 3.69991C2.80464 3.00157 3.41897 2.5 4.13172 2.5V1.5Z" fill="#030A22"/>
</svg>
