<svg width="19" height="18" viewBox="0 0 19 18" fill="none" xmlns="http://www.w3.org/2000/svg">
<circle cx="9.5" cy="9" r="9" fill="#797A84"/>
<path d="M11.5 13C11.5 14.1046 10.6046 15 9.5 15C8.39543 15 7.5 14.1046 7.5 13" stroke="white"/>
<path d="M10.5 4C10.5 3.44772 10.0523 3 9.5 3C8.94772 3 8.5 3.44772 8.5 4" stroke="white"/>
<path fill-rule="evenodd" clip-rule="evenodd" d="M9.25821 4H8.13172C7.18138 4 6.36228 4.66876 6.17215 5.59988L5.46295 9.07318C5.43297 9.22001 5.38652 9.36279 5.32519 9.49952C5.12304 9.95019 4.86451 10.5422 4.62799 11.1142C4.20594 12.135 4.87194 13 5.9765 13L9.25821 13H9.74181L13.0235 13C14.1281 13 14.7941 12.135 14.372 11.1142C14.1355 10.5422 13.877 9.95019 13.6748 9.49952C13.6135 9.36279 13.5671 9.22001 13.5371 9.07318L12.8279 5.59988C12.6377 4.66875 11.8186 4 10.8683 4H9.74181H9.25821Z" fill="#797A84"/>
<path d="M9.25821 13V13.5V13ZM9.74181 13V13.5V13ZM5.9765 13L5.9765 13.5L5.9765 13ZM13.6748 9.49952L14.131 9.29489L13.6748 9.49952ZM13.5371 9.07318L14.027 8.97315L13.5371 9.07318ZM5.46295 9.07318L4.97306 8.97315L5.46295 9.07318ZM8.13172 4.5H9.25821V3.5H8.13172V4.5ZM5.95284 9.17321L6.66205 5.69991L5.68226 5.49985L4.97306 8.97315L5.95284 9.17321ZM5.09005 11.3053C5.32425 10.7389 5.58073 10.1515 5.7814 9.70415L4.86898 9.29489C4.66536 9.74886 4.40478 10.3455 4.16593 10.9232L5.09005 11.3053ZM9.25821 12.5L5.9765 12.5L5.9765 13.5L9.25821 13.5V12.5ZM9.74181 12.5H9.25821V13.5H9.74181V12.5ZM9.74181 13.5L13.0235 13.5V12.5L9.74181 12.5V13.5ZM14.8341 10.9232C14.5952 10.3455 14.3347 9.74886 14.131 9.29489L13.2186 9.70415C13.4193 10.1515 13.6758 10.7389 13.91 11.3053L14.8341 10.9232ZM14.027 8.97315L13.3178 5.49985L12.338 5.69991L13.0472 9.17321L14.027 8.97315ZM10.8683 3.5H9.74181V4.5H10.8683V3.5ZM9.74181 3.5H9.25821V4.5H9.74181V3.5ZM13.3178 5.49985C13.0801 4.33594 12.0562 3.5 10.8683 3.5V4.5C11.5811 4.5 12.1954 5.00157 12.338 5.69991L13.3178 5.49985ZM13.0235 13.5C13.7053 13.5 14.3113 13.2301 14.6737 12.7353C15.0416 12.2328 15.1029 11.5733 14.8341 10.9232L13.91 11.3053C14.0632 11.6759 14.0025 11.9593 13.8669 12.1445C13.7256 12.3374 13.4463 12.5 13.0235 12.5V13.5ZM4.16593 10.9232C3.89712 11.5733 3.95838 12.2328 4.32637 12.7353C4.68874 13.2301 5.29476 13.5 5.9765 13.5L5.9765 12.5C5.55368 12.5 5.27441 12.3374 5.13316 12.1445C4.99752 11.9593 4.9368 11.6759 5.09005 11.3053L4.16593 10.9232ZM14.131 9.29489C14.0843 9.19076 14.0494 9.083 14.027 8.97315L13.0472 9.17321C13.0847 9.35701 13.1427 9.53482 13.2186 9.70415L14.131 9.29489ZM4.97306 8.97315C4.95063 9.083 4.91569 9.19076 4.86898 9.29489L5.7814 9.70415C5.85735 9.53482 5.91531 9.35701 5.95284 9.17321L4.97306 8.97315ZM8.13172 3.5C6.9438 3.5 5.91992 4.33594 5.68226 5.49985L6.66205 5.69991C6.80464 5.00157 7.41897 4.5 8.13172 4.5V3.5Z" fill="white"/>
</svg>
