<svg width="223" height="32" viewBox="0 0 223 32" fill="none" xmlns="http://www.w3.org/2000/svg">
<path d="M132.5 28.4214C139.68 28.4214 145.5 22.7306 145.5 15.7107C145.5 8.69077 139.68 3 132.5 3C125.32 3 119.5 8.69077 119.5 15.7107C119.5 22.7306 125.32 28.4214 132.5 28.4214Z" fill="#10A9FF"/>
<path d="M48.0865 20.0642C48.4648 20.0642 48.7733 20.3628 48.7932 20.7411C49.0421 25.265 52.5159 26.6734 57.2139 26.6734C60.0557 26.6734 66.1821 25.26 66.1821 21.6817C66.1821 18.8947 62.4047 17.7898 59.9064 17.2424L53.1778 15.8987C49.9976 15.177 47.0812 13.7985 47.0812 9.97631C47.0812 7.56755 49.6045 3.05859 57.2139 3.05859C62.2753 3.05859 67.3616 5.41261 67.7796 9.9365C67.8195 10.3446 67.481 10.6979 67.0729 10.6979H65.8835C65.5252 10.6979 65.2315 10.4292 65.1818 10.0758C64.699 6.73643 60.8221 5.05428 57.2139 5.05428C53.6904 5.05428 49.6542 6.2935 49.6542 9.94147C49.6542 12.2457 51.5454 13.2112 53.7451 13.694L61.0461 15.1721C64.8732 16.1027 68.7601 17.6157 68.7601 21.6419C68.7601 23.329 66.7942 28.6641 57.2139 28.6641C51.0776 28.6641 46.2949 26.2603 46.1954 20.7809C46.1904 20.3827 46.5089 20.0543 46.907 20.0543H48.0865V20.0642Z" fill="#0E003F" stroke="#0E003F" stroke-width="2" stroke-miterlimit="10"/>
<path d="M103.711 11.0115C103.403 11.0115 103.129 10.8124 103.04 10.5188C101.96 7.03504 98.6451 5.05428 94.8826 5.05428C87.726 5.05428 84.6952 10.4939 84.6952 15.8638C84.6952 21.2338 87.726 26.6734 94.8826 26.6734C99.6553 26.6734 102.771 23.4683 103.473 19.3725C103.532 19.034 103.826 18.7902 104.169 18.7902H105.304C105.747 18.7902 106.085 19.1933 106.006 19.6263C105.01 25.1704 100.909 28.6691 94.8826 28.6691C86.3574 28.6691 82.1172 22.5775 82.1172 15.8638C82.1172 9.15017 86.3574 3.05859 94.8776 3.05859C99.6852 3.05859 104.463 5.52707 105.578 10.1206C105.687 10.5735 105.354 11.0115 104.891 11.0115H103.711Z" fill="#0E003F" stroke="#0E003F" stroke-width="2" stroke-miterlimit="10"/>
<path d="M163.097 3.57529H164.252C164.645 3.57529 164.964 3.8938 164.964 4.28697V18.7943C164.924 24.5076 167.92 26.6775 172.877 26.6775C177.873 26.6775 180.864 24.5076 180.83 18.7943V4.28199C180.83 3.88883 181.148 3.57031 181.541 3.57031H182.696C183.089 3.57031 183.408 3.88883 183.408 4.28199V19.3019C183.408 24.3633 180.417 28.6632 172.882 28.6632C165.382 28.6632 162.391 24.3583 162.391 19.3019V4.28199C162.391 3.8938 162.709 3.57529 163.097 3.57529Z" fill="#0E003F" stroke="#0E003F" stroke-width="2" stroke-miterlimit="10"/>
<path d="M201.849 4.28199C201.849 3.88883 202.167 3.57031 202.56 3.57031H213.853C218.7 3.57031 221.88 6.15326 221.88 10.5925C221.88 15.0318 218.7 17.6148 213.853 17.6148H205.133C204.74 17.6148 204.422 17.9333 204.422 18.3265V27.4389C204.422 27.8321 204.103 28.1506 203.71 28.1506H202.555C202.162 28.1506 201.844 27.8321 201.844 27.4389V4.28199H201.849ZM204.427 14.9124C204.427 15.3055 204.745 15.6241 205.138 15.6241H213.29C216.849 15.6241 219.312 13.9718 219.312 10.5975C219.312 7.22327 216.849 5.57098 213.29 5.57098H205.138C204.745 5.57098 204.427 5.88949 204.427 6.28265V14.9124Z" fill="#0E003F" stroke="#0E003F" stroke-width="2" stroke-miterlimit="10"/>
<path d="M132.659 1.99609C124.457 1.99609 120.72 7.14208 120.411 13.5522C120.391 13.9603 120.715 14.3037 121.123 14.3037H122.277C122.651 14.3037 122.964 14.01 122.984 13.6368C123.228 8.49078 125.796 3.99178 132.659 3.99178C139.482 3.99178 142.05 8.49078 142.294 13.6368C142.314 14.01 142.627 14.3037 143.001 14.3037H144.155C144.563 14.3037 144.887 13.9603 144.867 13.5522C144.558 7.14208 140.821 1.99609 132.659 1.99609Z" fill="#0E003F" stroke="#0E003F" stroke-width="2" stroke-miterlimit="10"/>
<path d="M149.482 19.9934H121.587C121.194 19.9934 120.875 19.6749 120.875 19.2817V18.157C120.875 17.7638 121.194 17.4453 121.587 17.4453H149.482C149.875 17.4453 150.193 17.7638 150.193 18.157V19.2817C150.188 19.6749 149.875 19.9934 149.482 19.9934Z" fill="#0E003F" stroke="#0E003F" stroke-width="2" stroke-miterlimit="10"/>
<path d="M132.66 28.2588C125.797 28.2588 122.732 23.2621 122.488 18.1161C122.468 17.7428 122.154 17.4492 121.781 17.4492H120.627C120.219 17.4492 119.895 17.7926 119.915 18.2007C120.223 24.6108 124.459 30.2545 132.66 30.2545C138.329 30.2545 142.101 27.5322 143.983 23.7299C144.217 23.2571 143.878 22.6997 143.346 22.6997H142.166C141.902 22.6997 141.663 22.854 141.544 23.0929C140.051 26.064 137.179 28.2588 132.66 28.2588Z" fill="#0E003F" stroke="#0E003F" stroke-width="2" stroke-miterlimit="10"/>
<path d="M1.0274 14C0.435321 14 -0.045136 13.5151 0.00339501 12.9469C0.561502 6.53014 7.16683 1 14 1C20.8332 1 27.4385 6.53014 27.9966 12.9469C28.0451 13.5151 27.5695 14 26.9726 14H1.0274Z" fill="#10A9FF"/>
<path d="M30.8096 19.9934H2.9148C2.52164 19.9934 2.20312 19.6749 2.20312 19.2817V18.157C2.20312 17.7638 2.52164 17.4453 2.9148 17.4453H30.8096C31.2028 17.4453 31.5213 17.7638 31.5213 18.157V19.2817C31.5213 19.6749 31.2028 19.9934 30.8096 19.9934Z" fill="#0E003F" stroke="#0E003F" stroke-width="2" stroke-miterlimit="10"/>
<path d="M13.9886 28.2588C7.12561 28.2588 4.05991 23.2621 3.81605 18.1161C3.80112 17.7428 3.48261 17.4492 3.10935 17.4492H1.95474C1.54664 17.4492 1.22315 17.7926 1.24306 18.2007C1.55162 24.6108 5.78686 30.2545 13.9886 30.2545C19.6571 30.2545 23.4295 27.5322 25.3107 23.7299C25.5447 23.2571 25.2062 22.6997 24.6737 22.6997H23.4942C23.2305 22.6997 22.9916 22.854 22.8721 23.0929C21.3791 26.064 18.5075 28.2588 13.9886 28.2588Z" fill="#0E003F" stroke="#0E003F" stroke-width="2" stroke-miterlimit="10"/>
</svg>
